<svg width="86" height="86" viewBox="0 0 86 86" fill="none" xmlns="http://www.w3.org/2000/svg">
<g clip-path="url(#clip0_91_7179)">
<path d="M26.3797 51.7485C25.5375 51.9375 24.214 52.0063 21.6875 52.0235C18.5422 52.0235 18.0093 51.9891 16.7375 51.6282C13.8843 50.8547 11.7015 49.5656 9.96559 47.6406C9.44997 47.0735 8.9859 46.6094 8.93434 46.6094C8.7109 46.6094 7.93747 48.6891 7.7484 49.7719C6.7859 55.375 11.1515 62.4219 18.6797 67.4407C20.9312 68.936 24.2828 70.6375 26.8437 71.5828C36.7781 75.2438 47.0047 74.4532 51.9547 69.6235C52.814 68.7985 53.8281 67.3375 53.8281 66.9422C53.8281 66.8219 53.4672 66.5297 53.0203 66.3063C51.8859 65.7391 49.2047 63.9516 47.7437 62.8172C47.0734 62.2844 45.4234 60.7547 44.1 59.4141C41.4 56.5179 36.1001 50.1084 36.5001 47.6406C33.4198 49.2594 27.0833 52.3472 26.3797 51.7485ZM26.3797 51.7485C27.0156 51.5938 27.5312 51.525 27.5312 51.5766M32.3437 1.99064C25.5203 2.98751 18.4047 6.54533 12.4578 11.925C5.56559 18.1469 1.45778 26.2594 1.80153 32.9453C1.99059 36.3828 2.71247 38.2047 5.34215 41.6766L7.12965 44.0657L6.5109 45.2C5.42809 47.2281 2.28278 55.1516 1.99059 56.6297C0.942154 61.8032 3.58903 68.1453 9.00309 73.3532C13.575 77.7703 20.1922 81.3797 26.7922 83.0469C29.8172 83.8032 31.7765 84.0782 34.8531 84.1985C42.2609 84.4735 48.3453 82.3078 51.6796 78.2344C52.7281 76.9625 53.2093 76 54.9453 71.7032C55.7703 69.675 56.4578 67.9907 56.475 67.9735C56.4921 67.9563 57.025 68.1282 57.6609 68.3516C61.7 69.8297 66.6328 69.8985 69.9843 68.5407C71.5312 67.9047 72.6312 67.1141 76.7562 63.6422C81.414 59.7063 82.3421 58.5547 83.3734 55.461C87.9796 41.5906 73.5765 20.3297 57.1109 16.7031C56.3031 16.5141 55.4265 16.3594 55.1687 16.3594C54.7906 16.3594 54.6187 16.2219 54.3265 15.6203C53.7937 14.5719 53.2265 13.7813 50.1671 9.77658C48.6546 7.81721 46.9703 5.78908 46.4031 5.27345C45.0453 4.05314 42.725 2.8672 40.6281 2.33439C38.5312 1.78439 34.8015 1.64689 32.3437 1.99064ZM38.7718 4.75783C43.4297 5.56564 46.5062 8.21251 47.5546 12.3203C47.8984 13.6438 47.8812 16.5313 47.5375 18.1813C45.5437 27.8407 35.6953 37.8266 24.5406 41.4875C21.4468 42.5016 18.8859 42.8797 15.9297 42.7766C11.8734 42.6219 9.60465 41.7797 7.40465 39.5797C5.92653 38.1016 5.22184 36.8297 4.77497 34.8016C3.88122 30.8313 5.29059 25.5547 8.5734 20.5703C15.3797 10.2235 29.0437 3.05626 38.7718 4.75783ZM51.6281 16.4625C51.989 17.1156 52.4015 18.1813 52.539 18.8516C52.8312 20.1235 52.9172 23.561 52.6765 24.0078C52.5562 24.1969 52.1953 23.8188 51.164 22.4438L49.8234 20.6219L50.1156 19.4016C50.2703 18.7141 50.4593 17.4766 50.5109 16.6516C50.5796 15.7063 50.6828 15.1735 50.8031 15.2078C50.889 15.2422 51.2671 15.8094 51.6281 16.4625ZM58.7265 20.0031C63.1609 21.4813 67.5437 24.3688 71.5312 28.4938C76.4812 33.5985 79.6437 39.2531 81.0187 45.4407C81.5171 47.7266 81.5687 51.6969 81.1046 53.5703C80.125 57.4547 77.4781 60.1875 73.7656 61.1672C72.3218 61.5453 69.1593 61.5282 67.4406 61.15C62.2156 59.9985 57.3 57.1282 52.6937 52.5391C49.8578 49.7203 47.6922 46.85 45.8187 43.4125L45.0453 41.986L46.5406 40.4735C50.2531 36.6922 52.9171 32.5672 54.4125 28.2531C55.2546 25.8125 55.564 24.0422 55.564 21.4469V19.2469L56.3718 19.3672C56.8187 19.436 57.8671 19.711 58.7265 20.0031ZM51.3531 28.6485C50.6312 30.2641 49.6343 32.1547 49.2734 32.636L48.8953 33.0828L47.314 31.0031L45.75 28.9063L46.5922 27.5656C47.0562 26.8266 47.7265 25.6578 48.0703 24.9703L48.689 23.7328L50.2187 25.7266L51.7484 27.7375L51.3531 28.6485ZM45.7328 33.4438L47.2797 35.4891L46.7468 36.1938C45.939 37.2422 41.814 41.2813 41.5562 41.2813C41.4359 41.2813 40.6281 40.3531 39.7515 39.236L38.1875 37.1735L41.0578 34.2688C42.6562 32.6703 43.9968 31.3641 44.0656 31.3813C44.1171 31.3813 44.8734 32.3266 45.7328 33.4438ZM37.6203 40.9375C38.3765 41.9344 39.0468 42.8281 39.0984 42.9313C39.2531 43.2063 36.6062 44.9078 34.114 46.1625C33.0484 46.6953 32.1203 47.125 32.0515 47.125C31.9312 47.125 30.8656 45.7672 29.2156 43.5156L28.7343 42.8797L30.6765 41.9C31.725 41.35 33.3406 40.4219 34.2343 39.8375C35.4375 39.0297 35.9187 38.7891 36.0562 38.9438C36.1593 39.0469 36.864 39.9406 37.6203 40.9375ZM43.5843 45.0625C44.2375 46.3 45.8187 48.7406 46.764 49.9781L47.2968 50.6828L45.2172 52.4188C44.0656 53.3813 43.0687 54.1375 43 54.086C42.6906 53.8969 40.3703 50.3047 39.5109 48.6719L38.5656 46.9016L40.3875 45.6297C41.4015 44.925 42.3468 44.2375 42.4843 44.1C42.6218 43.9625 42.7765 43.8594 42.8281 43.8594C42.8796 43.8594 43.2234 44.3922 43.5843 45.0625ZM27.7031 46.0766C28.5453 47.211 29.1812 48.1735 29.1125 48.2078C28.4765 48.586 23.4406 49.4625 23.2172 49.2391C22.6328 48.6375 20.3468 45.475 20.45 45.3891C20.5187 45.3375 21.2234 45.1485 22.0312 44.9938C22.839 44.8391 23.9562 44.5641 24.5234 44.3922C25.0906 44.2031 25.6922 44.0485 25.8468 44.0485C26.0359 44.0313 26.7234 44.7875 27.7031 46.0766ZM13.0078 45.3203C13.764 45.4578 14.9672 45.561 15.6718 45.5781H16.9609L18.4047 47.486L19.8312 49.3938L19.075 49.2735C15.964 48.7922 13.489 47.5547 11.839 45.6297C11.564 45.3203 11.4093 45.0625 11.4953 45.0625C11.564 45.0625 12.2515 45.1828 13.0078 45.3203ZM53.6734 57.1797C54.464 57.8157 55.1 58.3828 55.0656 58.4516C55.0312 58.5032 54.1203 59.311 53.0203 60.2219L51.0265 61.8891L50.15 61.2016C48.5343 59.9297 46.0765 57.7125 45.475 56.9907L44.8906 56.2688L46.9703 54.5328L49.05 52.7969L50.6312 54.3953C51.5078 55.2891 52.8828 56.5266 53.6734 57.1797ZM5.85778 56.5782C6.08122 57.1969 6.56247 58.2797 6.94059 59.0016L7.62809 60.2907L6.82028 62.2672C6.39059 63.35 5.9609 64.2953 5.89215 64.3641C5.80622 64.4328 5.49684 63.7453 5.18747 62.8172C4.67184 61.3047 4.60309 60.9266 4.60309 59.1563C4.5859 57.7125 4.67184 56.9047 4.89528 56.1657C5.06715 55.6157 5.2734 55.2203 5.34215 55.3063C5.4109 55.3922 5.65153 55.9594 5.85778 56.5782ZM59.0359 60.8407C59.8093 61.2875 60.9781 61.8719 61.614 62.1469C62.25 62.4219 62.7484 62.6969 62.7312 62.7657C62.6968 62.8344 61.8718 63.5735 60.8921 64.3985C59.3625 65.6532 59.0359 65.8594 58.6578 65.7735C57.9875 65.6016 55.0484 64.3297 54.2234 63.8485L53.4843 63.4188L55.5125 61.7172C56.6125 60.7891 57.5406 60.0157 57.5578 60.0157C57.5921 60.0157 58.2453 60.3766 59.0359 60.8407ZM13.575 67.2516C13.6265 67.3719 12.0281 71.4797 11.7703 71.9438C11.65 72.1328 9.70778 70.2078 8.52184 68.7469L7.59372 67.6125L8.55622 65.2922L9.51872 62.9719L11.5125 65.0344C12.6125 66.1688 13.5406 67.1657 13.575 67.2516ZM69.5546 64.2094L71.6171 64.4157L70.5343 65.1203C69.95 65.5157 68.9875 65.9969 68.4031 66.186C66.9937 66.6672 64.639 66.9422 63.4531 66.7703L62.525 66.6328L64.2609 65.1375L66.014 63.6594L66.7531 63.8313C67.1656 63.9172 68.4203 64.0891 69.5546 64.2094ZM19.5047 71.1875C20.5359 71.7719 21.7734 72.425 22.289 72.6485L23.2 73.061L22.2031 75.5188C21.6531 76.8594 21.1203 77.9938 21.0172 78.0282C20.639 78.1485 16.9265 76.0344 14.0734 74.0922C13.9875 74.0235 14.314 72.9922 14.8125 71.7719C16.0843 68.6266 15.8781 68.85 16.8406 69.5375C17.2875 69.8641 18.4906 70.6032 19.5047 71.1875ZM50.6656 74.7453C50.0297 76.0344 48.9468 77.3063 47.7609 78.1828C46.6093 79.025 44.3922 80.211 44.2547 80.0563C44.2031 80.0047 44.5297 79.0422 44.9937 77.9078L45.8187 75.8625L46.8671 75.5703C47.4343 75.4157 48.6031 74.9688 49.4453 74.5563C50.3046 74.1438 51.0093 73.8344 51.0437 73.8516C51.0781 73.886 50.9062 74.2813 50.6656 74.7453ZM27.9953 74.8485C29.0265 75.175 30.7109 75.6219 31.7422 75.8453C32.7906 76.0516 33.6672 76.2578 33.6843 76.275C33.7187 76.2922 33.3062 77.4094 32.7734 78.7328C31.8797 80.9157 31.7422 81.1563 31.364 81.1563C30.1265 81.1563 23.75 79.4547 23.75 79.1282C23.75 79.0594 24.1968 77.9078 24.7297 76.5672C25.3484 75.0375 25.7953 74.1438 25.9328 74.1782C26.0359 74.2297 26.9812 74.5219 27.9953 74.8485ZM42.4843 76.6703C42.4843 76.7219 42.089 77.7532 41.5906 78.9391C40.5593 81.5 40.9718 81.2594 37.1047 81.4313L34.5781 81.5516L35.489 79.3344C35.9875 78.1141 36.4515 76.9969 36.5031 76.8594C36.589 76.6532 37.0875 76.6016 39.5453 76.5844C41.1609 76.5844 42.4843 76.6188 42.4843 76.6703Z" stroke="#F9B446" stroke-width="1.8"/>
<path d="M26.8587 52.6153C23.2591 56.2148 23.2479 56.2261 22.8304 56.1471C22.5708 56.1133 22.1533 55.8312 21.8035 55.4814C21.1378 54.8156 21.2281 54.7931 19.8514 55.8312L19.0954 56.3841L20.6639 57.9525L22.221 59.5097L20.9234 60.8074L19.6257 62.105L20.3592 62.8384L21.0926 63.5719L22.3903 62.2743L23.6879 60.9766L24.3085 61.5972L24.9179 62.2065L23.6879 63.5042L22.4467 64.8131L23.1802 65.5466L23.9136 66.28L25.2112 65.0501L26.4976 63.8314L27.0392 64.2376C29.4201 66.0092 30.6726 66.4944 32.1508 66.2123C33.7531 65.8964 35.3893 64.4859 35.8858 62.9964C36.1227 62.2404 35.976 60.9653 35.5811 60.3447C35.4457 60.119 35.3554 59.9159 35.378 59.8934C35.4118 59.8595 35.7729 59.8595 36.1904 59.8934C37.127 59.9498 37.6912 59.7692 38.5036 59.1599C40.0721 57.9525 40.4106 56.0343 39.395 54.116C39.1242 53.597 38.7857 53.0554 38.6503 52.92C38.5262 52.7958 38.3343 52.5363 38.2328 52.367M35.7842 53.7775C36.3258 54.7705 36.2581 55.6281 35.6037 56.2825C34.622 57.2642 33.4484 56.9708 31.5866 55.2896L30.4244 54.2402L31.9703 52.6943L33.5049 51.1597L34.4414 52.0962C34.9605 52.6153 35.5585 53.3713 35.7842 53.7775ZM31.7333 58.9794C32.8053 60.9766 31.4963 62.8497 29.4765 62.184C28.6302 61.9019 26.949 60.6945 26.1365 59.7692L25.6062 59.1712L27.2423 57.4673L28.8672 55.7748L30.0971 57.0047C30.8644 57.772 31.4625 58.5055 31.7333 58.9794Z" stroke="#FBFBFB" stroke-width="1.8"/>
<path d="M29.628 13.1625C21.4296 14.486 19.728 14.7954 19.453 15.0875C18.9889 15.5516 10.6874 33.925 10.6874 34.475C10.6874 35.111 10.9796 35.5922 11.4608 35.7813C11.9764 35.9703 32.2233 32.8078 32.7733 32.4469C33.1858 32.1719 41.7968 13.4032 41.7968 12.7672C41.7968 12.1141 41.0577 11.5469 40.2155 11.5641C39.803 11.5641 35.0421 12.286 29.628 13.1625ZM29.0608 19.7797C25.7093 22.3235 22.9421 24.386 22.9077 24.3344C22.8046 24.2485 21.8936 17.3219 21.9624 17.236C22.0311 17.15 34.1483 15.1907 34.7327 15.1735C34.9905 15.1563 33.0999 16.7032 29.0608 19.7797ZM34.303 22.9938C32.928 26.0016 31.6905 28.7172 31.5702 29.0266L31.3468 29.5594L28.0983 28.1844C26.328 27.4282 24.8155 26.7578 24.7639 26.7063C24.6952 26.6375 27.3593 24.5235 30.6764 21.9969C33.9936 19.4703 36.7436 17.425 36.7608 17.4594C36.7952 17.4766 35.678 19.9688 34.303 22.9938ZM20.0546 24.1625C20.2093 25.3657 20.278 26.4313 20.1921 26.5C19.7796 26.9125 15.7577 29.9032 15.7061 29.8516C15.6718 29.8172 16.5139 27.8407 17.5796 25.4688C19.1436 22.0313 19.5561 21.2407 19.6593 21.55C19.7108 21.7735 19.8999 22.9422 20.0546 24.1625ZM26.7921 30.6938C26.8608 30.7453 26.8264 30.7969 26.7405 30.7969C26.6546 30.7969 24.5061 31.1407 21.9452 31.5532C19.4014 31.9657 17.2874 32.2922 17.2702 32.275C17.253 32.2578 18.3186 31.4328 19.6249 30.4188L22.0311 28.5969L24.3514 29.5938C25.6405 30.1438 26.7405 30.625 26.7921 30.6938Z" stroke="#FBFBFB" stroke-width="1.8"/>
<path d="M59.7922 26.2422C58.5547 26.7063 57.3 27.8235 56.6984 29.0094C56.5437 29.3188 56.3547 29.9891 56.2687 30.5219C55.8906 32.9281 56.9734 35.1453 59.0703 36.2281C60.1359 36.7781 60.1187 36.761 60.2734 38.4625C60.3766 39.4594 60.3422 39.7172 60.1016 39.9063C59.8781 40.0953 59.7062 40.061 58.95 39.7172C57.6953 39.1328 55.2891 39.1328 54.2062 39.7C53.0719 40.3016 52.1609 41.2125 51.6453 42.2781C51.25 43.1031 51.1641 43.4813 51.1641 44.6328C51.1641 45.8016 51.2328 46.1625 51.6453 46.9875C53.2781 50.3219 57.5234 51.1469 60.2562 48.6547C61.975 47.0906 62.5078 44.7016 61.6484 42.4672C61.5969 42.3297 61.7172 42.1235 61.9062 42.0031C62.1812 41.8313 62.4906 41.8656 63.6078 42.175L64.9828 42.5703L65.1719 43.3438C65.5672 44.9422 66.925 46.4547 68.6094 47.1422C68.9531 47.2797 69.7781 47.3828 70.5 47.3828C71.5312 47.3828 71.9781 47.2969 72.7516 46.936C76.2234 45.3031 77.0312 40.7656 74.3328 38.0672C71.9266 35.661 67.8359 36.0735 65.9453 38.8922C65.6703 39.3047 65.4297 39.6828 65.3953 39.7172C65.3781 39.7516 64.8625 39.6485 64.2437 39.4938C63.1953 39.2016 63.1437 39.1672 63.0406 38.5656C62.8 37.036 62.8516 36.8813 63.8484 36.4172C65.8594 35.5063 66.9078 33.9766 67.0281 31.811C67.1312 29.9031 66.7703 28.9406 65.4469 27.6C64.7078 26.8781 64.1406 26.4656 63.5562 26.2766C62.525 25.9328 60.7031 25.9156 59.7922 26.2422ZM62.8859 29.0094C64.2437 29.6625 64.7594 31.6047 63.9172 32.8766C63.3672 33.7188 62.1125 34.3031 61.2187 34.1485C58.6062 33.7016 58.1078 29.886 60.5312 28.9235C61.1844 28.6656 62.2156 28.7 62.8859 29.0094ZM71.6 39.4594C71.9094 39.5969 72.3734 39.975 72.6312 40.3016C73.25 41.1094 73.3703 41.9516 72.9922 42.9141C72.2531 44.8563 69.8125 45.3203 68.4547 43.7735C66.5297 41.5735 68.9016 38.325 71.6 39.4594ZM57.9703 42.3469C59.225 43.0516 59.6719 44.7188 58.9328 45.9906C57.85 47.9156 55.1344 47.8125 54.1547 45.8188C53.0031 43.4125 55.6156 41.0235 57.9703 42.3469Z" stroke="#FBFBFB" stroke-width="1.8"/>
</g>
<defs>
<clipPath id="clip0_91_7179">
<rect width="86" height="86" fill="white"/>
</clipPath>
</defs>
</svg>
