<svg width="149" height="115" viewBox="0 0 149 115" fill="none" xmlns="http://www.w3.org/2000/svg">
<g clip-path="url(#clip0_926_10034)">
<path fill-rule="evenodd" clip-rule="evenodd" d="M41.0041 64.2759V42.4326L23.21 34.1033V54.2184L41.0041 64.2759Z" fill="white"/>
<path d="M23.21 34.1033L41.0041 42.4326L57.2509 34.1033L41.0041 25.593L23.21 34.1033Z" fill="#DACEF0"/>
<path d="M41.0029 42.4246L57.2498 34.1033V54.7962L41.0029 64.276V42.4246Z" fill="#9667E5"/>
<path d="M36.069 73.3039C39.1718 74.8466 42.6623 74.8466 45.3772 73.3039V89.8882C42.2745 91.4309 38.7839 91.4309 36.069 89.8882L4.65407 71.7611C1.55136 69.8327 0 66.7473 0 63.6618V27.4078C0 24.3223 1.55136 21.2369 4.65407 19.6942L36.4569 1.18146C39.5596 -0.361267 43.0502 -0.361267 45.765 1.18146L45.3772 18.1514C42.2745 16.6087 38.7839 16.6087 36.069 18.1514L19.392 27.7935C16.2892 29.7219 14.7379 32.8073 14.7379 35.8928V55.1768C14.7379 58.648 16.6771 61.7334 19.392 63.2761L36.069 73.3039Z" fill="#DACEF0"/>
<path d="M62.9 27.7929L44.4412 17.6789L44.4412 0.409664L77.6379 19.3079C80.7406 21.2363 82.292 24.3218 82.292 27.4072L82.292 63.6613C82.292 66.7467 80.7406 69.8322 77.6379 71.3749L45.8351 89.8876C42.7324 91.4303 39.2419 91.6664 36.527 90.1237L36.527 73.5632C39.5709 74.7808 43.5081 74.4604 46.2229 72.9176L62.9 63.2756C66.0027 61.3472 67.5541 58.2617 67.5541 55.1763L67.5541 35.8922C67.5541 32.4211 65.6149 29.3357 62.9 27.7929Z" fill="#9667E5"/>
<path d="M134.262 59.026C134.262 55.5549 132.323 52.4695 129.608 50.9267L112.931 40.7932L112.931 24.0279L144.346 42.4417C147.449 44.3702 149 47.4556 149 50.5411L149 86.7951C149 89.8806 147.449 92.966 144.346 94.5087L112.931 113.511C109.828 115.053 105.599 113.582 102.884 112.04L103.492 95.6024C105.928 97.4287 110.189 98.0375 112.931 96.0515L129.608 86.4094C132.711 84.481 134.262 81.3956 134.262 78.3101L134.262 59.026Z" fill="#DACEF0"/>
<path d="M104.253 40.8993C107.355 39.3565 110.846 39.3565 113.561 40.8993L113.561 32.6071L113.561 24.2998C110.189 22.5492 106.968 22.7722 104.253 24.315L72.8377 42.442C69.7349 44.3704 68.1836 47.4558 68.1836 50.5413L68.1836 86.7953C68.1836 89.8808 69.7349 92.9662 72.8377 94.509L104.64 113.022C107.743 114.564 110.016 114.564 112.731 113.022L112.625 96.2117C111.688 97.5892 106.968 97.5944 104.253 96.0517L87.5756 86.4097C84.4728 84.4812 82.9215 81.3958 82.9215 78.3103L82.9215 59.0263C82.9215 55.5551 84.8607 52.4697 87.5755 50.927L104.253 40.8993Z" fill="#9667E5"/>
<path fill-rule="evenodd" clip-rule="evenodd" d="M110.328 87.41V65.5666L92.5342 57.2373V77.3524L110.328 87.41Z" fill="#9667E5"/>
<path d="M92.5342 57.2373L110.328 65.5666L126.575 57.2373L110.328 48.7271L92.5342 57.2373Z" fill="#DACEF0"/>
<path d="M110.329 65.5585L126.576 57.2372V77.2128L110.329 87.4099V65.5585Z" fill="white"/>
</g>
<defs>
<clipPath id="clip0_926_10034">
<rect width="149" height="115" fill="white"/>
</clipPath>
</defs>
</svg>
