<svg width="22" height="22" viewBox="0 0 22 22" fill="none" xmlns="http://www.w3.org/2000/svg">
<path d="M17.4173 11.0002H15.8132L13.2923 6.41687L8.70898 15.5835L6.18815 11.0002H4.58398" stroke="#6A6351" stroke-width="1.5" stroke-linecap="round" stroke-linejoin="round"/>
<path d="M0.75 11C0.75 13.2475 0.871405 15.0024 1.17704 16.3776C1.48077 17.7443 1.9564 18.6896 2.63339 19.3666C3.31039 20.0436 4.25571 20.5192 5.62241 20.823C6.99762 21.1286 8.75249 21.25 11 21.25C13.2475 21.25 15.0024 21.1286 16.3776 20.823C17.7443 20.5192 18.6896 20.0436 19.3666 19.3666C20.0436 18.6896 20.5192 17.7443 20.823 16.3776C21.1286 15.0024 21.25 13.2475 21.25 11C21.25 8.75249 21.1286 6.99762 20.823 5.62241C20.5192 4.25571 20.0436 3.31039 19.3666 2.63339C18.6896 1.9564 17.7443 1.48077 16.3776 1.17704C15.0024 0.871405 13.2475 0.75 11 0.75C8.75249 0.75 6.99762 0.871405 5.62241 1.17704C4.25571 1.48077 3.31039 1.9564 2.63339 2.63339C1.9564 3.31039 1.48077 4.25571 1.17704 5.62241C0.871405 6.99762 0.75 8.75249 0.75 11Z" stroke="#6A6351" stroke-width="1.5" stroke-linecap="round" stroke-linejoin="round"/>
</svg>
