<svg width="18" height="19" viewBox="0 0 18 19" fill="none" xmlns="http://www.w3.org/2000/svg">
<path d="M7.31055 7.28326L7.31055 16.2907C7.31055 17.1784 8.03021 17.8981 8.91795 17.8981H9.07351C9.96126 17.8981 10.6809 17.1784 10.6809 16.2907V7.28326C10.6809 6.39551 9.96126 5.67585 9.07351 5.67585H8.91795C8.03021 5.67585 7.31055 6.39551 7.31055 7.28326Z" stroke="#6A6351" stroke-width="1.5" stroke-linecap="round" stroke-linejoin="round"/>
<path d="M13.7705 3.2093L13.7705 16.2908C13.7705 17.1785 14.4902 17.8982 15.3779 17.8982H15.5335C16.4212 17.8982 17.1409 17.1785 17.1409 16.2908V3.2093C17.1409 2.32156 16.4212 1.6019 15.5335 1.6019H15.3779C14.4902 1.6019 13.7705 2.32156 13.7705 3.2093Z" stroke="#6A6351" stroke-width="1.5" stroke-linecap="round" stroke-linejoin="round"/>
<path d="M0.851563 12.2018L0.851563 16.2907C0.851562 17.1784 1.57122 17.8981 2.45897 17.8981H2.61453C3.50227 17.8981 4.22193 17.1784 4.22193 16.2907V12.2018C4.22193 11.314 3.50227 10.5944 2.61453 10.5944H2.45897C1.57122 10.5944 0.851563 11.314 0.851563 12.2018Z" stroke="#6A6351" stroke-width="1.5" stroke-linecap="round" stroke-linejoin="round"/>
</svg>
