<svg width="24" height="24" viewBox="0 0 24 24" fill="none" xmlns="http://www.w3.org/2000/svg">
<path fill-rule="evenodd" clip-rule="evenodd" d="M15 11.6154C15 9.06638 13.2091 7 11 7H6C3.79086 7 2 9.06638 2 11.6154V17.3846C2 19.9336 3.79086 22 6 22H11C13.2091 22 15 19.9336 15 17.3846V11.6154ZM11 9.30769C12.1046 9.30769 13 10.3409 13 11.6154V17.3846C13 18.6591 12.1046 19.6923 11 19.6923H6C4.89543 19.6923 4 18.6591 4 17.3846V11.6154C4 10.3409 4.89543 9.30769 6 9.30769H11Z" fill="#6A6351"/>
<path fill-rule="evenodd" clip-rule="evenodd" d="M22 4.61538C22 2.06638 20.2091 0 18 0H13C10.7909 0 9 2.06638 9 4.61538V4.85577C9 5.49302 9.44771 6.00962 10 6.00962C10.5523 6.00962 11 5.49302 11 4.85577V4.61538C11 3.34088 11.8954 2.30769 13 2.30769H18C19.1046 2.30769 20 3.34088 20 4.61538V10.3846C20 11.6591 19.1046 12.6923 18 12.6923H17.7917C17.2394 12.6923 16.7917 13.2089 16.7917 13.8462C16.7917 14.4834 17.2394 15 17.7917 15H18C20.2091 15 22 12.9336 22 10.3846V4.61538Z" fill="#6A6351"/>
</svg>
