<svg width="28" height="28" viewBox="0 0 28 28" fill="none" xmlns="http://www.w3.org/2000/svg">
<path d="M21.5511 19.486C20.2301 21.3043 18.2973 22.5848 16.1078 23.0923C13.9183 23.5998 11.6193 23.3001 9.63298 22.2485C7.6467 21.1968 6.10662 19.4637 5.2957 17.3675C4.48477 15.2714 4.45745 12.9531 5.21877 10.8384C5.98009 8.72378 7.47891 6.95487 9.43986 5.85668C11.4008 4.7585 13.6922 4.4048 15.893 4.86056C18.0938 5.31633 20.0563 6.55096 21.4198 8.33761C22.7833 10.1243 23.4564 12.3429 23.3152 14.586M23.3152 14.586L25.0652 12.836M23.3152 14.586L21.5652 12.836" stroke="#F9B446" stroke-width="2" stroke-linecap="round" stroke-linejoin="round"/>
<path d="M14 9.33331V14L17.5 17.5" stroke="#F9B446" stroke-width="2" stroke-linecap="round" stroke-linejoin="round"/>
</svg>
