<svg width="64" height="64" viewBox="0 0 64 64" fill="none" xmlns="http://www.w3.org/2000/svg">
<g clip-path="url(#clip0_411_9196)" filter="url(#filter0_ii_411_9196)">
<path d="M58.2016 58.2016C55.8619 60.5413 52.8737 61.7557 48.6583 62.3742C44.4091 62.9976 39.0396 63 32 63C24.9604 63 19.5909 62.9976 15.3417 62.3742C11.1263 61.7557 8.13815 60.5413 5.79842 58.2016C3.45869 55.8619 2.24426 52.8737 1.62582 48.6583C1.00244 44.4091 1 39.0396 1 32C1 24.9604 1.00244 19.5909 1.62582 15.3417C2.24426 11.1263 3.45869 8.13815 5.79842 5.79842C8.13815 3.45869 11.1263 2.24426 15.3417 1.62582C19.5909 1.00244 24.9604 1 32 1C39.0396 1 44.4091 1.00244 48.6583 1.62582C52.8737 2.24426 55.8619 3.45869 58.2016 5.79842C60.5413 8.13815 61.7557 11.1263 62.3742 15.3417C62.9976 19.5909 63 24.9604 63 32C63 39.0396 62.9976 44.4091 62.3742 48.6583C61.7557 52.8737 60.5413 55.8619 58.2016 58.2016Z" stroke="#8B6917" stroke-width="2"/>
<g clip-path="url(#clip1_411_9196)">
<path d="M24.1759 36.8063C23.7566 36.9004 23.0977 36.9346 21.8398 36.9432C20.2739 36.9432 20.0086 36.9261 19.3754 36.7464C17.9549 36.3613 16.8681 35.7195 16.0038 34.7611C15.7471 34.4787 15.5161 34.2477 15.4904 34.2477C15.3792 34.2477 14.9941 35.2831 14.9 35.8222C14.4208 38.6118 16.5943 42.1203 20.3423 44.619C21.4633 45.3634 23.132 46.2106 24.407 46.6812C29.353 48.5039 34.4445 48.1103 36.909 45.7057C37.3368 45.295 37.8417 44.5676 37.8417 44.3708C37.8417 44.3109 37.662 44.1654 37.4395 44.0542C36.8748 43.7718 35.5398 42.8819 34.8125 42.3171C34.4787 42.0518 33.6573 41.2902 32.9984 40.6228C31.6541 39.1808 29.0155 35.9898 29.2146 34.7611C27.681 35.5671 24.5262 37.1044 24.1759 36.8063ZM24.1759 36.8063C24.4925 36.7293 24.7493 36.695 24.7493 36.7207M27.1453 12.0333C23.7481 12.5296 20.2054 14.301 17.2446 16.9793C13.8132 20.077 11.7681 24.116 11.9392 27.4448C12.0333 29.1562 12.3927 30.0632 13.702 31.7918L14.5919 32.9812L14.2839 33.546C13.7448 34.5558 12.1788 38.5006 12.0333 39.2365C11.5113 41.8122 12.8291 44.9698 15.5246 47.5626C17.8009 49.7618 21.0954 51.5588 24.3813 52.3889C25.8874 52.7654 26.8629 52.9023 28.3946 52.9622C32.0827 53.0991 35.112 52.0209 36.7721 49.9929C37.2941 49.3596 37.5337 48.8804 38.3979 46.7411C38.8087 45.7314 39.151 44.8928 39.1595 44.8842C39.1681 44.8757 39.4333 44.9613 39.75 45.0725C41.7609 45.8084 44.2168 45.8426 45.8854 45.1666C46.6556 44.85 47.2032 44.4564 49.257 42.7278C51.5759 40.7682 52.038 40.1949 52.5515 38.6546C54.8448 31.749 47.6739 21.1638 39.4761 19.3582C39.0739 19.2641 38.6375 19.1871 38.5092 19.1871C38.3209 19.1871 38.2353 19.1186 38.0899 18.8191C37.8246 18.2971 37.5422 17.9035 36.019 15.9097C35.266 14.9342 34.4274 13.9244 34.145 13.6677C33.469 13.0602 32.3138 12.4697 31.2698 12.2045C30.2258 11.9306 28.3689 11.8622 27.1453 12.0333ZM30.3456 13.411C32.6646 13.8132 34.1964 15.131 34.7183 17.1762C34.8895 17.8351 34.8809 19.2727 34.7098 20.0942C33.7172 24.9033 28.8139 29.875 23.2603 31.6977C21.72 32.2025 20.445 32.3908 18.9732 32.3394C16.9537 32.2624 15.8241 31.8431 14.7288 30.7478C13.9929 30.0119 13.6421 29.3787 13.4196 28.3689C12.9746 26.3922 13.6763 23.7652 15.3107 21.2836C18.6994 16.1322 25.5023 12.5639 30.3456 13.411ZM36.7464 19.2384C36.9261 19.5636 37.1315 20.0942 37.1999 20.4279C37.3454 21.0611 37.3882 22.7725 37.2684 22.995C37.2085 23.0892 37.0288 22.9009 36.5154 22.2163L35.8479 21.3093L35.9934 20.7017C36.0704 20.3594 36.1645 19.7433 36.1902 19.3326C36.2244 18.8619 36.2758 18.5967 36.3357 18.6138C36.3784 18.6309 36.5667 18.9133 36.7464 19.2384ZM40.2805 21.0012C42.4882 21.7371 44.6703 23.1747 46.6556 25.2284C49.12 27.7699 50.6946 30.5852 51.3791 33.6658C51.6273 34.8039 51.653 36.7806 51.4219 37.7133C50.9342 39.6473 49.6164 41.0078 47.768 41.4956C47.0492 41.6839 45.4747 41.6753 44.619 41.487C42.0176 40.9137 39.5703 39.4847 37.2769 37.1999C35.865 35.7965 34.7868 34.3675 33.8541 32.6561L33.469 31.9458L34.2135 31.1928C36.0618 29.3102 37.3882 27.2565 38.1327 25.1086C38.552 23.8935 38.706 23.0121 38.706 21.72V20.6247L39.1082 20.6846C39.3307 20.7188 39.8526 20.8557 40.2805 21.0012ZM36.6095 25.3055C36.2501 26.1098 35.7538 27.0511 35.5741 27.2907L35.3858 27.5132L34.5985 26.4778L33.8198 25.4338L34.2391 24.7664C34.4702 24.3984 34.8039 23.8165 34.9751 23.4742L35.2831 22.8581L36.0447 23.8507L36.8063 24.8519L36.6095 25.3055ZM33.8113 27.6929L34.5814 28.7112L34.3162 29.0621C33.914 29.584 31.8603 31.595 31.7319 31.595C31.672 31.595 31.2698 31.1329 30.8334 30.5767L30.0547 29.5498L31.4837 28.1037C32.2796 27.3078 32.947 26.6575 32.9812 26.6661C33.0069 26.6661 33.3834 27.1367 33.8113 27.6929ZM29.7723 31.4238C30.1488 31.9201 30.4826 32.3651 30.5082 32.4165C30.5852 32.5534 29.2674 33.4005 28.0267 34.0252C27.4961 34.2905 27.034 34.5044 26.9998 34.5044C26.9399 34.5044 26.4094 33.8284 25.5879 32.7074L25.3483 32.3908L26.3152 31.903C26.8372 31.6292 27.6416 31.1671 28.0866 30.8762C28.6856 30.474 28.9252 30.3542 28.9936 30.4312C29.045 30.4825 29.3958 30.9275 29.7723 31.4238ZM32.7416 33.4775C33.0668 34.0937 33.8541 35.3088 34.3247 35.9249L34.59 36.2757L33.5546 37.14C32.9812 37.6192 32.4849 37.9957 32.4507 37.9701C32.2967 37.8759 31.1415 36.0875 30.7136 35.2746L30.243 34.3932L31.15 33.7599C31.6549 33.4091 32.1255 33.0668 32.194 32.9983C32.2624 32.9299 32.3395 32.8785 32.3651 32.8785C32.3908 32.8785 32.5619 33.1438 32.7416 33.4775ZM24.8348 33.9824C25.2541 34.5472 25.5707 35.0264 25.5365 35.0435C25.2199 35.2318 22.7127 35.6682 22.6014 35.5569C22.3105 35.2574 21.1724 33.6829 21.2237 33.6401C21.2579 33.6145 21.6088 33.5203 22.011 33.4433C22.4132 33.3663 22.9694 33.2294 23.2518 33.1438C23.5341 33.0497 23.8336 32.9727 23.9107 32.9727C24.0048 32.9641 24.3471 33.3406 24.8348 33.9824ZM17.5185 33.6059C17.895 33.6744 18.494 33.7257 18.8448 33.7343H19.4866L20.2054 34.6841L20.9157 35.634L20.5391 35.5741C18.9903 35.3345 17.7581 34.7183 16.9366 33.7599C16.7997 33.6059 16.7226 33.4775 16.7654 33.4775C16.7997 33.4775 17.142 33.5374 17.5185 33.6059ZM37.7647 39.5103C38.1583 39.827 38.4749 40.1093 38.4578 40.1436C38.4407 40.1692 37.9872 40.5714 37.4395 41.025L36.4469 41.855L36.0105 41.5127C35.2061 40.8795 33.9824 39.7756 33.6829 39.4162L33.392 39.0568L34.4274 38.1925L35.4628 37.3283L36.2501 38.1241C36.6865 38.5691 37.3711 39.1852 37.7647 39.5103ZM13.9587 39.2108C14.0699 39.5189 14.3095 40.058 14.4978 40.4174L14.8401 41.0592L14.4379 42.0433C14.224 42.5824 14.01 43.053 13.9758 43.0872C13.933 43.1215 13.779 42.7792 13.625 42.3171C13.3682 41.5641 13.334 41.3758 13.334 40.4944C13.3255 39.7756 13.3682 39.3734 13.4795 39.0055C13.5651 38.7316 13.6677 38.5348 13.702 38.5776C13.7362 38.6204 13.856 38.9028 13.9587 39.2108ZM40.4345 41.333C40.8196 41.5555 41.4015 41.8465 41.7181 41.9834C42.0347 42.1203 42.2829 42.2572 42.2743 42.2914C42.2572 42.3257 41.8465 42.6936 41.3587 43.1044C40.5971 43.729 40.4345 43.8317 40.2463 43.7889C39.9125 43.7034 38.4493 43.0701 38.0385 42.8305L37.6706 42.6166L38.6803 41.7694C39.228 41.3073 39.6901 40.9223 39.6986 40.9223C39.7157 40.9223 40.0409 41.102 40.4345 41.333ZM17.8009 44.5248C17.8265 44.5847 17.0307 46.6299 16.9023 46.8609C16.8424 46.9551 15.8755 45.9967 15.285 45.2693L14.823 44.7045L15.3022 43.5493L15.7814 42.3941L16.774 43.421C17.3217 43.9857 17.7837 44.4821 17.8009 44.5248ZM45.6715 43.0102L46.6984 43.1129L46.1593 43.4638C45.8683 43.6606 45.3891 43.9002 45.0982 43.9943C44.3965 44.2339 43.2242 44.3708 42.6337 44.2852L42.1716 44.2168L43.0359 43.4723L43.9087 42.7364L44.2767 42.822C44.4821 42.8648 45.1067 42.9503 45.6715 43.0102ZM20.7531 46.4844C21.2665 46.7754 21.8826 47.1005 22.1393 47.2118L22.5929 47.4172L22.0965 48.6408C21.8227 49.3083 21.5574 49.8731 21.5061 49.8902C21.3178 49.9501 19.4695 48.8975 18.049 47.9306C18.0062 47.8964 18.1688 47.3829 18.417 46.7754C19.0502 45.2094 18.9475 45.3207 19.4267 45.6629C19.6492 45.8255 20.2482 46.1935 20.7531 46.4844ZM36.2672 48.2558C35.9506 48.8975 35.4115 49.5308 34.821 49.9672C34.2477 50.3865 33.1438 50.9769 33.0754 50.8999C33.0497 50.8743 33.2123 50.3951 33.4433 49.8303L33.8541 48.812L34.3761 48.6665C34.6584 48.5895 35.2403 48.367 35.6596 48.1616C36.0875 47.9563 36.4383 47.8022 36.4555 47.8108C36.4726 47.8279 36.387 48.0247 36.2672 48.2558ZM24.9803 48.3071C25.4937 48.4697 26.3323 48.6922 26.8458 48.8034C27.3678 48.9061 27.8042 49.0088 27.8127 49.0173C27.8298 49.0259 27.6245 49.5821 27.3592 50.241C26.9142 51.3278 26.8458 51.4476 26.6575 51.4476C26.0414 51.4476 22.8667 50.6004 22.8667 50.4378C22.8667 50.4036 23.0892 49.8303 23.3544 49.1628C23.6625 48.4012 23.885 47.9563 23.9534 47.9734C24.0048 47.999 24.4754 48.1445 24.9803 48.3071ZM32.194 49.2142C32.194 49.2398 31.9972 49.7533 31.749 50.3437C31.2356 51.6187 31.441 51.4989 29.5156 51.5845L28.2577 51.6444L28.7112 50.5405C28.9594 49.933 29.1904 49.3767 29.2161 49.3083C29.2589 49.2056 29.507 49.1799 30.7307 49.1714C31.5351 49.1714 32.194 49.1885 32.194 49.2142Z" stroke="#F9B446"/>
<path d="M24.4144 37.2379C22.6223 39.03 22.6167 39.0356 22.4088 38.9963C22.2796 38.9794 22.0718 38.839 21.8976 38.6648C21.5662 38.3334 21.6111 38.3221 20.9257 38.839L20.5493 39.1143L21.3302 39.8951L22.1055 40.6704L21.4594 41.3165L20.8134 41.9625L21.1785 42.3277L21.5437 42.6929L22.1897 42.0468L22.8358 41.4007L23.1448 41.7097L23.4482 42.0131L22.8358 42.6591L22.2178 43.3108L22.583 43.676L22.9482 44.0412L23.5942 43.4288L24.2347 42.8221L24.5043 43.0243C25.6897 43.9063 26.3133 44.1479 27.0492 44.0074C27.847 43.8501 28.6616 43.1479 28.9087 42.4063C29.0267 42.0299 28.9537 41.3951 28.7571 41.0861C28.6896 40.9738 28.6447 40.8727 28.6559 40.8614C28.6728 40.8446 28.8526 40.8446 29.0604 40.8614C29.5267 40.8895 29.8076 40.7996 30.2121 40.4963C30.993 39.8951 31.1615 38.9401 30.6559 37.9851C30.5211 37.7266 30.3525 37.457 30.2851 37.3896C30.2233 37.3278 30.1278 37.1986 30.0773 37.1143M28.8582 37.8165C29.1278 38.3109 29.0941 38.7379 28.7683 39.0637C28.2795 39.5525 27.6953 39.4064 26.7683 38.5693L26.1897 38.0469L26.9593 37.2772L27.7234 36.5132L28.1897 36.9795C28.4481 37.2379 28.7458 37.6143 28.8582 37.8165ZM26.8414 40.4064C27.3751 41.4007 26.7234 42.3333 25.7178 42.0019C25.2964 41.8614 24.4594 41.2603 24.0549 40.7996L23.7908 40.5019L24.6054 39.6536L25.4144 38.8109L26.0268 39.4232C26.4088 39.8053 26.7065 40.1704 26.8414 40.4064Z" stroke="#FBFBFB"/>
<path d="M25.7932 17.5954C21.7114 18.2543 20.8643 18.4084 20.7274 18.5538C20.4963 18.7849 16.3632 27.9325 16.3632 28.2063C16.3632 28.5229 16.5087 28.7625 16.7483 28.8567C17.005 28.9508 27.0853 27.3763 27.3592 27.1966C27.5645 27.0597 31.8517 17.7152 31.8517 17.3986C31.8517 17.0735 31.4837 16.7911 31.0644 16.7996C30.859 16.7996 28.4887 17.159 25.7932 17.5954ZM25.5108 20.8899C23.8422 22.1564 22.4645 23.1833 22.4474 23.1576C22.396 23.1148 21.9425 19.6663 21.9767 19.6235C22.0109 19.5807 28.0437 18.6052 28.3347 18.5966C28.463 18.5881 27.5218 19.3582 25.5108 20.8899ZM28.1208 22.4901C27.4362 23.9876 26.8201 25.3397 26.7602 25.4937L26.6489 25.759L25.0316 25.0744C24.1502 24.6979 23.3972 24.3642 23.3715 24.3385C23.3373 24.3043 24.6637 23.2517 26.3152 21.9938C27.9667 20.7359 29.3359 19.7176 29.3444 19.7347C29.3615 19.7433 28.8053 20.9841 28.1208 22.4901ZM21.0269 23.072C21.1039 23.671 21.1381 24.2016 21.0953 24.2358C20.89 24.4412 18.8876 25.9301 18.8619 25.9044C18.8448 25.8873 19.2641 24.9033 19.7946 23.7224C20.5733 22.0109 20.7787 21.6173 20.8301 21.7713C20.8557 21.8826 20.9499 22.4645 21.0269 23.072ZM24.3813 26.3237C24.4155 26.3494 24.3984 26.3751 24.3556 26.3751C24.3128 26.3751 23.2432 26.5462 21.9682 26.7516C20.7017 26.957 19.6492 27.1196 19.6406 27.111C19.6321 27.1024 20.1626 26.6917 20.8129 26.1868L22.0109 25.2798L23.1662 25.7761C23.8079 26.0499 24.3556 26.2895 24.3813 26.3237Z" stroke="#FBFBFB"/>
<path d="M40.811 24.1075C40.1949 24.3385 39.5703 24.8947 39.2708 25.4852C39.1937 25.6392 39.0996 25.9729 39.0568 26.2382C38.8686 27.4362 39.4077 28.5401 40.4516 29.0792C40.9822 29.353 40.9736 29.3445 41.0506 30.1916C41.102 30.6879 41.0849 30.8163 40.9651 30.9104C40.8538 31.0046 40.7683 30.9874 40.3917 30.8163C39.7671 30.5254 38.5691 30.5254 38.03 30.8077C37.4652 31.1072 37.0117 31.5608 36.755 32.0913C36.5581 32.5021 36.5154 32.6903 36.5154 33.2636C36.5154 33.8455 36.5496 34.0252 36.755 34.436C37.5679 36.0961 39.6815 36.5068 41.0421 35.266C41.8978 34.4873 42.1631 33.2979 41.7352 32.1854C41.7095 32.117 41.7694 32.0143 41.8636 31.9544C42.0005 31.8688 42.1545 31.8859 42.7107 32.04L43.3953 32.2368L43.4894 32.6219C43.6862 33.4177 44.3623 34.1707 45.2009 34.513C45.372 34.5814 45.7828 34.6328 46.1422 34.6328C46.6556 34.6328 46.8781 34.59 47.2631 34.4103C48.9917 33.5974 49.3939 31.3383 48.0504 29.9948C46.8524 28.7968 44.8158 29.0022 43.8745 30.4056C43.7376 30.6109 43.6178 30.7992 43.6007 30.8163C43.5921 30.8334 43.3354 30.7821 43.0273 30.7051C42.5054 30.5596 42.4797 30.5425 42.4283 30.243C42.3085 29.4814 42.3342 29.4044 42.8305 29.1733C43.8317 28.7198 44.3537 27.9582 44.4136 26.88C44.4649 25.9302 44.2852 25.451 43.6263 24.7835C43.2584 24.4241 42.976 24.2187 42.6851 24.1246C42.1716 23.9535 41.2646 23.9449 40.811 24.1075ZM42.3513 25.4852C43.0273 25.8104 43.2841 26.7773 42.8648 27.4105C42.5909 27.8298 41.9663 28.1208 41.5213 28.0438C40.2206 27.8213 39.9724 25.9216 41.179 25.4424C41.5042 25.314 42.0176 25.3312 42.3513 25.4852ZM46.6898 30.6879C46.8438 30.7564 47.0749 30.9447 47.2032 31.1072C47.5113 31.5094 47.5712 31.9287 47.3829 32.4079C47.015 33.3749 45.7999 33.6059 45.1238 32.8358C44.1654 31.7405 45.3463 30.1232 46.6898 30.6879ZM39.904 32.1255C40.5287 32.4764 40.7511 33.3064 40.3832 33.9397C39.8441 34.8981 38.4921 34.8467 38.0043 33.8541C37.431 32.6561 38.7317 31.4666 39.904 32.1255Z" stroke="#FBFBFB"/>
</g>
</g>
<defs>
<filter id="filter0_ii_411_9196" x="-5" y="-7" width="69" height="72.5" filterUnits="userSpaceOnUse" color-interpolation-filters="sRGB">
<feFlood flood-opacity="0" result="BackgroundImageFix"/>
<feBlend mode="normal" in="SourceGraphic" in2="BackgroundImageFix" result="shape"/>
<feColorMatrix in="SourceAlpha" type="matrix" values="0 0 0 0 0 0 0 0 0 0 0 0 0 0 0 0 0 0 127 0" result="hardAlpha"/>
<feOffset dy="1.5"/>
<feGaussianBlur stdDeviation="1"/>
<feComposite in2="hardAlpha" operator="arithmetic" k2="-1" k3="1"/>
<feColorMatrix type="matrix" values="0 0 0 0 1 0 0 0 0 1 0 0 0 0 1 0 0 0 0.13 0"/>
<feBlend mode="normal" in2="shape" result="effect1_innerShadow_411_9196"/>
<feColorMatrix in="SourceAlpha" type="matrix" values="0 0 0 0 0 0 0 0 0 0 0 0 0 0 0 0 0 0 127 0" result="hardAlpha"/>
<feOffset dx="-5" dy="-7"/>
<feGaussianBlur stdDeviation="10"/>
<feComposite in2="hardAlpha" operator="arithmetic" k2="-1" k3="1"/>
<feColorMatrix type="matrix" values="0 0 0 0 0.917647 0 0 0 0 0.556863 0 0 0 0 0 0 0 0 0.3 0"/>
<feBlend mode="normal" in2="effect1_innerShadow_411_9196" result="effect2_innerShadow_411_9196"/>
</filter>
<clipPath id="clip0_411_9196">
<rect width="64" height="64" fill="white"/>
</clipPath>
<clipPath id="clip1_411_9196">
<rect width="42.8169" height="42.8169" fill="white" transform="translate(11.0423 11.0422)"/>
</clipPath>
</defs>
</svg>
