<svg width="19" height="20" viewBox="0 0 19 20" fill="none" xmlns="http://www.w3.org/2000/svg">
<path d="M1.25 15.8334C1.25 16.6462 1.34848 17.2016 1.54452 17.6025C1.72669 17.9751 2.02293 18.2752 2.56289 18.5206C3.12736 18.7772 3.94272 18.9658 5.12509 19.0853C6.30027 19.204 7.78684 19.25 9.66659 19.25C11.5463 19.25 13.0329 19.204 14.2081 19.0853C15.3905 18.9658 16.2058 18.7772 16.7703 18.5206C17.3102 18.2752 17.6065 17.9751 17.7887 17.6025C17.9847 17.2016 18.0832 16.6462 18.0832 15.8334C18.0832 15.0206 17.9847 14.4652 17.7887 14.0642C17.6065 13.6916 17.3102 13.3916 16.7703 13.1461C16.2058 12.8895 15.3905 12.7009 14.2081 12.5815C13.0329 12.4627 11.5463 12.4167 9.66659 12.4167C7.78684 12.4167 6.30027 12.4627 5.12509 12.5815C3.94272 12.7009 3.12736 12.8895 2.56289 13.1461C2.02293 13.3916 1.72669 13.6916 1.54452 14.0642C1.34848 14.4652 1.25 15.0206 1.25 15.8334Z" stroke="#6A6351" stroke-width="1.5" stroke-linecap="round" stroke-linejoin="round"/>
<circle r="4.24996" transform="matrix(-1 0 0 1 9.66606 4.99996)" stroke="#6A6351" stroke-width="1.5"/>
</svg>
