<svg width="19" height="20" viewBox="0 0 19 20" fill="none" xmlns="http://www.w3.org/2000/svg">
<g opacity="0.6">
<path fill-rule="evenodd" clip-rule="evenodd" d="M14.9126 8.20632C14.9126 11.9101 11.9101 14.9126 8.20632 14.9126C4.50252 14.9126 1.5 11.9101 1.5 8.20632C1.5 4.50252 4.50252 1.5 8.20632 1.5C11.9101 1.5 14.9126 4.50252 14.9126 8.20632ZM13.1811 14.7333C11.8009 15.7869 10.0767 16.4126 8.20632 16.4126C3.67409 16.4126 0 12.7385 0 8.20632C0 3.67409 3.67409 0 8.20632 0C12.7385 0 16.4126 3.67409 16.4126 8.20632C16.4126 10.3287 15.6069 12.2629 14.2847 13.7198C14.2874 13.7227 14.2902 13.7257 14.2929 13.7286L17.8334 17.6189C18.1124 17.9255 18.0937 18.4035 17.7916 18.6866C17.4896 18.9697 17.0186 18.9507 16.7396 18.6442L13.1991 14.7539C13.193 14.7471 13.187 14.7403 13.1811 14.7333Z" fill="#F9B446"/>
<rect x="0.5" y="0.5" width="18" height="19" stroke="black"/>
</g>
</svg>
