<svg width="21" height="19" viewBox="0 0 21 19" fill="none" xmlns="http://www.w3.org/2000/svg">
<g clip-path="url(#clip0_465_3201)">
<path d="M11.458 9.40454H5.70801C5.31509 9.40454 4.98926 9.07871 4.98926 8.68579C4.98926 8.29287 5.31509 7.96704 5.70801 7.96704H11.458C11.8509 7.96704 12.1768 8.29287 12.1768 8.68579C12.1768 9.07871 11.8509 9.40454 11.458 9.40454Z" fill="#6A6351"/>
<path d="M0.916992 9.40402C0.524076 9.40402 0.198242 9.07819 0.198242 8.68527V4.25782C0.198242 1.9099 2.10533 0.00280762 4.45324 0.00280762H9.83908C12.302 0.00280762 14.0941 1.64156 14.0941 3.89364C14.0941 4.28656 13.7682 4.61239 13.3753 4.61239C12.9824 4.61239 12.6566 4.28656 12.6566 3.89364C12.6566 2.20697 11.1903 1.44031 9.83908 1.44031H4.45324C2.90074 1.44031 1.63574 2.70532 1.63574 4.25782V8.68527C1.63574 9.08777 1.30991 9.40402 0.916992 9.40402Z" fill="#6A6351"/>
<path d="M14.3337 18.9879H4.75033C2.23949 18.9879 0.198242 16.9467 0.198242 14.4358V7.72751C0.198242 5.21667 2.23949 3.17542 4.75033 3.17542H14.3337C16.8445 3.17542 18.8857 5.21667 18.8857 7.72751V9.117C18.8857 9.50991 18.5599 9.83575 18.167 9.83575H17.132C16.7966 9.83575 16.4899 9.96033 16.2695 10.1903L16.2599 10.1999C15.9437 10.5162 15.8191 10.957 15.9341 11.3882C16.0778 11.9249 16.6432 12.3179 17.2757 12.3179H18.167C18.5599 12.3179 18.8857 12.6438 18.8857 13.0367V14.4263C18.8857 16.9467 16.8445 18.9879 14.3337 18.9879ZM4.75033 4.61292C3.03491 4.61292 1.63574 6.01208 1.63574 7.72751V14.4358C1.63574 16.1513 3.03491 17.5504 4.75033 17.5504H14.3337C16.0491 17.5504 17.4482 16.1513 17.4482 14.4358V13.765H17.2757C15.982 13.765 14.8607 12.9504 14.5445 11.7717C14.2953 10.8421 14.5637 9.85491 15.2441 9.18408C15.7424 8.67616 16.4132 8.39825 17.132 8.39825H17.4482V7.72751C17.4482 6.01208 16.0491 4.61292 14.3337 4.61292H4.75033Z" fill="#6A6351"/>
<path d="M19.0958 13.7643H17.2463C15.7992 13.7643 14.5725 12.6909 14.4575 11.3109C14.3808 10.5155 14.6683 9.73925 15.2433 9.17383C15.7225 8.6755 16.4029 8.39758 17.1217 8.39758H19.0863C20.0254 8.39758 20.7921 9.15467 20.7921 10.0938V12.068C20.8017 13.0072 20.035 13.7643 19.0958 13.7643ZM17.1313 9.83508C16.7958 9.83508 16.4892 9.95967 16.2688 10.1897C15.9908 10.458 15.8567 10.8222 15.895 11.1863C15.9429 11.8188 16.5563 12.3268 17.2463 12.3268H19.0958C19.2396 12.3268 19.3642 12.2117 19.3642 12.068V10.0938C19.3642 9.95008 19.2396 9.83508 19.0958 9.83508H17.1313Z" fill="#6A6351"/>
</g>
<defs>
<clipPath id="clip0_465_3201">
<rect width="21" height="19" fill="white"/>
</clipPath>
</defs>
</svg>
